<svg width="20" height="19" viewBox="0 0 20 19" fill="none" xmlns="http://www.w3.org/2000/svg">
<path d="M18.3091 2.08777L16.9172 0.695801C16.4537 0.231934 15.8458 0 15.238 0C14.6301 0 14.0222 0.231934 13.5584 0.69543L0.481775 13.772L0.0104863 18.0107C-0.0488888 18.5443 0.371561 19 0.89369 19C0.926717 19 0.959744 18.9981 0.993514 18.9944L5.22918 18.5265L18.3095 5.44617C19.2369 4.51881 19.2369 3.01514 18.3091 2.08777ZM4.68404 17.3924L1.23176 17.775L1.61621 14.3175L11.409 4.52475L14.4805 7.59629L4.68404 17.3924ZM17.4697 4.60676L15.32 6.7565L12.2484 3.68496L14.3982 1.53521C14.6223 1.31107 14.9207 1.1875 15.238 1.1875C15.5552 1.1875 15.8532 1.31107 16.0777 1.53521L17.4697 2.92719C17.9325 3.39031 17.9325 4.14363 17.4697 4.60676Z" fill="#FEAF00"/>
</svg>
