<svg width="17" height="18" viewBox="0 0 17 18" fill="none" xmlns="http://www.w3.org/2000/svg">
<path d="M0.291573 2.25H4.00586L5.20586 0.675C5.36554 0.465419 5.5726 0.295313 5.81064 0.178154C6.04867 0.0609948 6.31115 0 6.57729 0L9.43443 0C9.70056 0 9.96304 0.0609948 10.2011 0.178154C10.4391 0.295313 10.6462 0.465419 10.8059 0.675L12.0059 2.25H15.7201C15.7959 2.25 15.8686 2.27963 15.9222 2.33238C15.9758 2.38512 16.0059 2.45666 16.0059 2.53125V3.09375C16.0059 3.16834 15.9758 3.23988 15.9222 3.29262C15.8686 3.34537 15.7959 3.375 15.7201 3.375H15.0451L13.8594 16.4637C13.8211 16.8833 13.6247 17.2737 13.3087 17.558C12.9928 17.8423 12.5803 17.9999 12.1523 18H3.85943C3.4314 17.9999 3.01888 17.8423 2.70297 17.558C2.38707 17.2737 2.19063 16.8833 2.15229 16.4637L0.966573 3.375H0.291573C0.215796 3.375 0.143124 3.34537 0.0895424 3.29262C0.0359602 3.23988 0.00585938 3.16834 0.00585938 3.09375V2.53125C0.00585938 2.45666 0.0359602 2.38512 0.0895424 2.33238C0.143124 2.27963 0.215796 2.25 0.291573 2.25ZM9.89157 1.35C9.83816 1.28034 9.7691 1.22379 9.68979 1.18475C9.61049 1.14572 9.52309 1.12527 9.43443 1.125H6.57729C6.48862 1.12527 6.40123 1.14572 6.32192 1.18475C6.24262 1.22379 6.17356 1.28034 6.12014 1.35L5.43443 2.25H10.5773L9.89157 1.35ZM3.29157 16.3617C3.30334 16.5019 3.36831 16.6325 3.47354 16.7277C3.57878 16.8228 3.71656 16.8754 3.85943 16.875H12.1523C12.2952 16.8754 12.4329 16.8228 12.5382 16.7277C12.6434 16.6325 12.7084 16.5019 12.7201 16.3617L13.8987 3.375H2.113L3.29157 16.3617Z" fill="#FEAF00"/>
</svg>
